<?xml version="1.0" encoding="UTF-8"?>
<!DOCTYPE svg PUBLIC "-//W3C//DTD SVG 1.1//EN" "http://www.w3.org/Graphics/SVG/1.1/DTD/svg11.dtd">
<svg xmlns="http://www.w3.org/2000/svg" version="1.1" width="16px" height="16px" style="shape-rendering:geometricPrecision; text-rendering:geometricPrecision; image-rendering:optimizeQuality; fill-rule:evenodd; clip-rule:evenodd" xmlns:xlink="http://www.w3.org/1999/xlink">
<g><path style="opacity:0.492" fill="#eebfc4" d="M 5.5,3.5 C 7.91176,3.69408 8.91176,5.02741 8.5,7.5C 7.5,7.5 6.5,7.5 5.5,7.5C 5.5,6.16667 5.5,4.83333 5.5,3.5 Z"/></g>
<g><path style="opacity:0.255" fill="#efc5c9" d="M 3.5,8.5 C 3.16667,8.5 2.83333,8.5 2.5,8.5C 2.16667,7.16667 1.83333,7.16667 1.5,8.5C 0.833333,8.5 0.166667,8.5 -0.5,8.5C -0.5,8.16667 -0.5,7.83333 -0.5,7.5C 0.712371,6.77013 1.71237,5.77013 2.5,4.5C 4.64235,5.43711 4.97569,6.77045 3.5,8.5 Z"/></g>
<g><path style="opacity:0.365" fill="#b4b4b4" d="M -0.5,8.5 C 0.166667,8.5 0.833333,8.5 1.5,8.5C 1.83333,8.5 2.16667,8.5 2.5,8.5C 2.83333,9.16667 3.16667,9.83333 3.5,10.5C 2.83333,10.5 2.5,10.8333 2.5,11.5C 1.5,11.5 0.5,11.5 -0.5,11.5C -0.5,10.5 -0.5,9.5 -0.5,8.5 Z"/></g>
<g><path style="opacity:0.349" fill="#a5a5a5" d="M 2.5,8.5 C 2.83333,8.5 3.16667,8.5 3.5,8.5C 4.16667,8.5 4.83333,8.5 5.5,8.5C 5.5,9.83333 4.83333,10.5 3.5,10.5C 3.16667,9.83333 2.83333,9.16667 2.5,8.5 Z"/></g>
<g><path style="opacity:0.179" fill="#939493" d="M 5.5,8.5 C 6.5,8.5 7.5,8.5 8.5,8.5C 8.5,9.5 8.5,10.5 8.5,11.5C 6.5,11.5 4.5,11.5 2.5,11.5C 2.5,10.8333 2.83333,10.5 3.5,10.5C 4.83333,10.5 5.5,9.83333 5.5,8.5 Z"/></g>
<g><path style="opacity:0.416" fill="#e29299" d="M 8.5,8.5 C 9.83333,8.5 11.1667,8.5 12.5,8.5C 12.5,9.5 12.5,10.5 12.5,11.5C 11.1667,11.5 9.83333,11.5 8.5,11.5C 8.5,10.5 8.5,9.5 8.5,8.5 Z"/></g>
<g><path style="opacity:0.38" fill="#e3969c" d="M 12.5,8.5 C 13.5,8.5 14.5,8.5 15.5,8.5C 15.5,9.5 15.5,10.5 15.5,11.5C 14.5,11.5 13.5,11.5 12.5,11.5C 12.5,10.5 12.5,9.5 12.5,8.5 Z"/></g>
</svg>
